# xmcd
#
# Track frame offsets:
#	150
#	12826
#	23305
#	33433
#	44921
#	56716
#	66032
#	75650
#	87643
#	100314
#	109454
#	122650
#	135031
#	147370
#	158575
#	170532
#	184647
#	194151
#	207695
#	220568
#	232951
#	241323
#	252026
#	262757
#	275272
#
# Disc length: 3840 seconds
#
# Revision: 6
# Processed by: cddbd v1.5.2PL0 Copyright (c) Steve Scherf et al.
# Submitted via: audiograbber 1.83.01
#
DISCID=5a0efe19
DTITLE=Various Artist - Big Boss Man - The Vee-Jay Story  [CD1)
DYEAR=2012
DGENRE=Oldies
TTITLE0=Jimmy Reed - Big Boss Man
TTITLE1=Gene Chandler - Duke Of Earl
TTITLE2=John Lee Hooker - Dimples
TTITLE3=Spaniels - Stormy Weather
TTITLE4=El Dorados - At My Front Door (Crazy Little Mama)
TTITLE5=Capers - Miss You, My Dear
TTITLE6=Rosco Gordon - Just A Little Bit
TTITLE7=Dee Clark - Raindrops
TTITLE8=Magnificents - Up On The Mountain
TTITLE9=Donnie Elbert - Hey Baby
TTITLE10=Dells - Oh What A Night
TTITLE11=Elmore James - Cry For Me Baby
TTITLE12=Jerry Butler - He Will Break Your Heart
TTITLE13=Five Echoes - I Really Do
TTITLE14=Memphis Slim - My Gal Keeps My Crying
TTITLE15=Floyd Jones - Ain't Times Hard
TTITLE16=Hi-Lighters - Bobby Sox Baby
TTITLE17=Staple Singers - Uncloudy Day
TTITLE18=Kool Gents - This Is The Night
TTITLE19=Jimmy Reed - Pretty Thing
TTITLE20=Rockin' R's - Mustang
TTITLE21=Wade Flemons and The Newcomers - Here I Stand
TTITLE22=Billy 'The Kid' Emerson - You Never Miss The Water
TTITLE23=Priscilla Bowman and Jay McShann's Orchestra - Hands Off
TTITLE24=Billy Boy Arnold - I Was Fooled
EXTD=
EXTT0=
EXTT1=
EXTT2=
EXTT3=
EXTT4=
EXTT5=
EXTT6=
EXTT7=
EXTT8=
EXTT9=
EXTT10=
EXTT11=
EXTT12=
EXTT13=
EXTT14=
EXTT15=
EXTT16=
EXTT17=
EXTT18=
EXTT19=
EXTT20=
EXTT21=
EXTT22=
EXTT23=
EXTT24=
PLAYORDER=
